<svg width="31" height="31" viewBox="0 0 31 31" fill="none" xmlns="http://www.w3.org/2000/svg">
<path d="M11.5353 26.1594V22.3316C11.5353 21.358 12.329 20.5669 13.3124 20.5604H16.9147C17.9028 20.5604 18.7039 21.3534 18.7039 22.3316V22.3316V26.1713C18.7036 26.9979 19.3701 27.6735 20.2048 27.6929H22.6063C25.0003 27.6929 26.9411 25.7716 26.9411 23.4015V23.4015V12.5126C26.9283 11.5802 26.4861 10.7046 25.7403 10.1351L17.5271 3.58508C16.0883 2.4446 14.0429 2.4446 12.604 3.58508L4.42683 10.147C3.67823 10.7142 3.23529 11.5912 3.22607 12.5245V23.4015C3.22607 25.7716 5.1668 27.6929 7.56081 27.6929H9.96233C10.8178 27.6929 11.5113 27.0063 11.5113 26.1594V26.1594" stroke="#0E7478" stroke-width="1.40418" stroke-linecap="round" stroke-linejoin="round"/>
</svg>
