<svg width="28" height="28" viewBox="0 0 28 28" fill="none" xmlns="http://www.w3.org/2000/svg">
<path d="M2.33337 14.2379C2.33337 11.5681 2.33337 10.2332 2.93911 9.12654C3.54484 8.01992 4.65148 7.3331 6.86474 5.9595L9.19808 4.51136C11.5377 3.05935 12.7075 2.33334 14 2.33334C15.2926 2.33334 16.4624 3.05935 18.802 4.51136L21.1354 5.95948C23.3487 7.3331 24.4552 8.01992 25.061 9.12654C25.6667 10.2332 25.6667 11.5681 25.6667 14.2379V16.0125C25.6667 20.5634 25.6667 22.839 24.2998 24.2528C22.9331 25.6667 20.7331 25.6667 16.3334 25.6667H11.6667C7.26693 25.6667 5.06705 25.6667 3.70021 24.2528C2.33337 22.839 2.33337 20.5634 2.33337 16.0125V14.2379Z" stroke="white" stroke-width="1.75"/>
<path d="M10.5 18.6667C11.4921 19.402 12.6987 19.8333 14 19.8333C15.3013 19.8333 16.5079 19.402 17.5 18.6667" stroke="white" stroke-width="1.75" stroke-linecap="round"/>
</svg>
