<svg width="23" height="23" viewBox="0 0 23 23" fill="none" xmlns="http://www.w3.org/2000/svg">
<path d="M11.5 6.70838V12.4584" stroke="white" stroke-width="1.4375" stroke-linecap="round"/>
<path d="M11.5 16.2917C12.0292 16.2917 12.4583 15.8626 12.4583 15.3333C12.4583 14.8041 12.0292 14.375 11.5 14.375C10.9707 14.375 10.5416 14.8041 10.5416 15.3333C10.5416 15.8626 10.9707 16.2917 11.5 16.2917Z" fill="white"/>
<path d="M1.91663 11.5C1.91663 6.98232 1.91663 4.72351 3.32008 3.32007C4.72352 1.91662 6.98233 1.91662 11.5 1.91662C16.0175 1.91662 18.2764 1.91662 19.6798 3.32007C21.0833 4.72351 21.0833 6.98232 21.0833 11.5C21.0833 16.0175 21.0833 18.2764 19.6798 19.6798C18.2764 21.0833 16.0175 21.0833 11.5 21.0833C6.98233 21.0833 4.72352 21.0833 3.32008 19.6798C1.91663 18.2764 1.91663 16.0175 1.91663 11.5Z" stroke="white" stroke-width="1.4375"/>
</svg>
