<svg width="26" height="26" viewBox="0 0 26 26" fill="none" xmlns="http://www.w3.org/2000/svg">
<g clip-path="url(#clip0_116_4588)">
<path fill-rule="evenodd" clip-rule="evenodd" d="M24.1429 7.42857C24.1429 8.45371 23.3109 9.28571 22.2857 9.28571H18.5714C17.5463 9.28571 16.7143 8.45371 16.7143 7.42857V3.71429C16.7143 2.68914 17.5463 1.85714 18.5714 1.85714H22.2857C23.3109 1.85714 24.1429 2.68914 24.1429 3.71429V7.42857ZM22.2857 0H18.5714C16.5202 0 14.8571 1.66307 14.8571 3.71429V7.42857C14.8571 9.47979 16.5202 11.1429 18.5714 11.1429H22.2857C24.3369 11.1429 26 9.47979 26 7.42857V3.71429C26 1.66307 24.3369 0 22.2857 0ZM24.1429 22.2857C24.1429 23.3109 23.3109 24.1429 22.2857 24.1429H18.5714C17.5463 24.1429 16.7143 23.3109 16.7143 22.2857V18.5714C16.7143 17.5463 17.5463 16.7143 18.5714 16.7143H22.2857C23.3109 16.7143 24.1429 17.5463 24.1429 18.5714V22.2857ZM22.2857 14.8571H18.5714C16.5202 14.8571 14.8571 16.5202 14.8571 18.5714V22.2857C14.8571 24.3369 16.5202 26 18.5714 26H22.2857C24.3369 26 26 24.3369 26 22.2857V18.5714C26 16.5202 24.3369 14.8571 22.2857 14.8571ZM9.28571 7.42857C9.28571 8.45371 8.45371 9.28571 7.42857 9.28571H3.71429C2.68914 9.28571 1.85714 8.45371 1.85714 7.42857V3.71429C1.85714 2.68914 2.68914 1.85714 3.71429 1.85714H7.42857C8.45371 1.85714 9.28571 2.68914 9.28571 3.71429V7.42857ZM7.42857 0H3.71429C1.66307 0 0 1.66307 0 3.71429V7.42857C0 9.47979 1.66307 11.1429 3.71429 11.1429H7.42857C9.47979 11.1429 11.1429 9.47979 11.1429 7.42857V3.71429C11.1429 1.66307 9.47979 0 7.42857 0ZM9.28571 22.2857C9.28571 23.3109 8.45371 24.1429 7.42857 24.1429H3.71429C2.68914 24.1429 1.85714 23.3109 1.85714 22.2857V18.5714C1.85714 17.5463 2.68914 16.7143 3.71429 16.7143H7.42857C8.45371 16.7143 9.28571 17.5463 9.28571 18.5714V22.2857ZM7.42857 14.8571H3.71429C1.66307 14.8571 0 16.5202 0 18.5714V22.2857C0 24.3369 1.66307 26 3.71429 26H7.42857C9.47979 26 11.1429 24.3369 11.1429 22.2857V18.5714C11.1429 16.5202 9.47979 14.8571 7.42857 14.8571Z" fill="white"/>
</g>
<defs>
<clipPath id="clip0_116_4588">
<rect width="26" height="26" fill="white"/>
</clipPath>
</defs>
</svg>
