<svg width="26" height="26" viewBox="0 0 26 26" fill="none" xmlns="http://www.w3.org/2000/svg">
<g clip-path="url(#clip0_116_4560)">
<path d="M7.57808 0H4.33033C3.18186 0 2.08042 0.45623 1.26832 1.26832C0.45623 2.08042 0 3.18186 0 4.33033L0 7.57808C0 8.72655 0.45623 9.82799 1.26832 10.6401C2.08042 11.4522 3.18186 11.9084 4.33033 11.9084H7.57808C8.72655 11.9084 9.82799 11.4522 10.6401 10.6401C11.4522 9.82799 11.9084 8.72655 11.9084 7.57808V4.33033C11.9084 3.18186 11.4522 2.08042 10.6401 1.26832C9.82799 0.45623 8.72655 0 7.57808 0V0ZM9.74324 7.57808C9.74324 8.15232 9.51513 8.70303 9.10908 9.10908C8.70303 9.51513 8.15232 9.74324 7.57808 9.74324H4.33033C3.75609 9.74324 3.20537 9.51513 2.79933 9.10908C2.39328 8.70303 2.16517 8.15232 2.16517 7.57808V4.33033C2.16517 3.75609 2.39328 3.20537 2.79933 2.79933C3.20537 2.39328 3.75609 2.16517 4.33033 2.16517H7.57808C8.15232 2.16517 8.70303 2.39328 9.10908 2.79933C9.51513 3.20537 9.74324 3.75609 9.74324 4.33033V7.57808Z" fill="white"/>
<path d="M7.57808 14.0735H4.33033C3.18186 14.0735 2.08042 14.5297 1.26832 15.3418C0.45623 16.1539 0 17.2554 0 18.4038L0 21.6516C0 22.8001 0.45623 23.9015 1.26832 24.7136C2.08042 25.5257 3.18186 25.9819 4.33033 25.9819H7.57808C8.72655 25.9819 9.82799 25.5257 10.6401 24.7136C11.4522 23.9015 11.9084 22.8001 11.9084 21.6516V18.4038C11.9084 17.2554 11.4522 16.1539 10.6401 15.3418C9.82799 14.5297 8.72655 14.0735 7.57808 14.0735ZM9.74324 21.6516C9.74324 22.2258 9.51513 22.7766 9.10908 23.1826C8.70303 23.5886 8.15232 23.8168 7.57808 23.8168H4.33033C3.75609 23.8168 3.20537 23.5886 2.79933 23.1826C2.39328 22.7766 2.16517 22.2258 2.16517 21.6516V18.4038C2.16517 17.8296 2.39328 17.2789 2.79933 16.8728C3.20537 16.4668 3.75609 16.2387 4.33033 16.2387H7.57808C8.15232 16.2387 8.70303 16.4668 9.10908 16.8728C9.51513 17.2789 9.74324 17.8296 9.74324 18.4038V21.6516Z" fill="white"/>
<path d="M21.6517 14.0735H18.4039C17.2555 14.0735 16.154 14.5297 15.3419 15.3418C14.5298 16.1539 14.0736 17.2554 14.0736 18.4038V21.6516C14.0736 22.8001 14.5298 23.9015 15.3419 24.7136C16.154 25.5257 17.2555 25.9819 18.4039 25.9819H21.6517C22.8002 25.9819 23.9016 25.5257 24.7137 24.7136C25.5258 23.9015 25.982 22.8001 25.982 21.6516V18.4038C25.982 17.2554 25.5258 16.1539 24.7137 15.3418C23.9016 14.5297 22.8002 14.0735 21.6517 14.0735ZM23.8169 21.6516C23.8169 22.2258 23.5887 22.7766 23.1827 23.1826C22.7766 23.5886 22.2259 23.8168 21.6517 23.8168H18.4039C17.8297 23.8168 17.279 23.5886 16.8729 23.1826C16.4669 22.7766 16.2388 22.2258 16.2388 21.6516V18.4038C16.2388 17.8296 16.4669 17.2789 16.8729 16.8728C17.279 16.4668 17.8297 16.2387 18.4039 16.2387H21.6517C22.2259 16.2387 22.7766 16.4668 23.1827 16.8728C23.5887 17.2789 23.8169 17.8296 23.8169 18.4038V21.6516Z" fill="white"/>
<path d="M15.1562 7.57802H18.4039V10.8258C18.4039 11.1129 18.518 11.3882 18.721 11.5913C18.924 11.7943 19.1994 11.9083 19.4865 11.9083C19.7736 11.9083 20.049 11.7943 20.252 11.5913C20.455 11.3882 20.5691 11.1129 20.5691 10.8258V7.57802H23.8169C24.104 7.57802 24.3793 7.46396 24.5824 7.26093C24.7854 7.05791 24.8994 6.78255 24.8994 6.49543C24.8994 6.20831 24.7854 5.93295 24.5824 5.72993C24.3793 5.52691 24.104 5.41285 23.8169 5.41285H20.5691V2.1651C20.5691 1.87798 20.455 1.60262 20.252 1.3996C20.049 1.19658 19.7736 1.08252 19.4865 1.08252C19.1994 1.08252 18.924 1.19658 18.721 1.3996C18.518 1.60262 18.4039 1.87798 18.4039 2.1651V5.41285H15.1562C14.8691 5.41285 14.5937 5.52691 14.3907 5.72993C14.1877 5.93295 14.0736 6.20831 14.0736 6.49543C14.0736 6.78255 14.1877 7.05791 14.3907 7.26093C14.5937 7.46396 14.8691 7.57802 15.1562 7.57802Z" fill="white"/>
</g>
<defs>
<clipPath id="clip0_116_4560">
<rect width="25.982" height="25.982" fill="white"/>
</clipPath>
</defs>
</svg>
