<svg width="29" height="29" viewBox="0 0 29 29" fill="none" xmlns="http://www.w3.org/2000/svg">
<path d="M6.14767 6.34642C5.99292 6.56451 5.99292 6.87338 5.99292 7.49114C5.99292 8.10889 5.99292 8.41777 6.14767 8.63586C6.20227 8.71282 6.26947 8.78001 6.34642 8.83461C6.56451 8.98935 6.87338 8.98935 7.49114 8.98935C8.10889 8.98935 8.41777 8.98935 8.63586 8.83461C8.71282 8.78001 8.78001 8.71282 8.83461 8.63586C8.98935 8.41777 8.98935 8.10889 8.98935 7.49114C8.98935 6.87338 8.98935 6.56451 8.83461 6.34642C8.78001 6.26947 8.71282 6.20227 8.63586 6.14767C8.41777 5.99292 8.10889 5.99292 7.49114 5.99292C6.87338 5.99292 6.56451 5.99292 6.34642 6.14767C6.26947 6.20227 6.20227 6.26947 6.14767 6.34642Z" fill="white"/>
<path fill-rule="evenodd" clip-rule="evenodd" d="M10.4325 1.54647C10.9627 1.59688 11.4568 1.70626 11.91 1.98399C12.3535 2.25576 12.7264 2.62865 12.9982 3.07216C13.276 3.52536 13.3853 4.01946 13.4357 4.54966C13.4839 5.05683 13.4839 5.68124 13.4839 6.42947V7.85311C13.4839 8.92998 13.484 9.82801 13.3881 10.5409C13.287 11.2934 13.0644 11.9727 12.5185 12.5186C11.9726 13.0645 11.2932 13.2871 10.5408 13.3882C9.82791 13.4841 8.92992 13.484 7.85304 13.484H6.42946C5.68124 13.484 5.05672 13.484 4.54956 13.4358C4.01936 13.3854 3.52526 13.2761 3.07205 12.9983C2.62854 12.7265 2.25566 12.3536 1.98388 11.9101C1.70616 11.4569 1.59678 10.9628 1.54636 10.4326C1.49813 9.92545 1.49816 9.30099 1.49817 8.55273V8.4648C1.49816 7.32609 1.49815 6.4077 1.56844 5.66844C1.64093 4.90604 1.79447 4.24179 2.1605 3.64448C2.53111 3.0397 3.03959 2.53122 3.64437 2.16061C4.24168 1.79458 4.90593 1.64104 5.66833 1.56855C6.40761 1.49825 7.32596 1.49826 8.46467 1.49828H8.5526C9.30087 1.49826 9.92534 1.49824 10.4325 1.54647ZM10.2623 3.33625C9.85037 3.29708 9.31192 3.29614 8.50982 3.29614C7.31539 3.29614 6.48268 3.29708 5.8385 3.35833C5.20771 3.41831 4.85111 3.5297 4.58375 3.69354C4.22088 3.91591 3.9158 4.22099 3.69343 4.58386C3.5296 4.85121 3.4182 5.20781 3.35822 5.83861C3.29698 6.48278 3.29603 7.31549 3.29603 8.50993C3.29603 9.31203 3.29698 9.85048 3.33615 10.2624C3.37404 10.661 3.44128 10.8475 3.51681 10.9707C3.64034 11.1723 3.80983 11.3418 4.01143 11.4654C4.13467 11.5409 4.32113 11.6081 4.71973 11.646C5.1317 11.6852 5.67015 11.6862 6.47225 11.6862H7.79068C8.94612 11.6862 9.72227 11.6842 10.3012 11.6064C10.8543 11.532 11.091 11.4035 11.2472 11.2473C11.4034 11.0911 11.5319 10.8544 11.6063 10.3013C11.6841 9.72237 11.686 8.94622 11.686 7.79079V6.47236C11.686 5.67026 11.6851 5.13181 11.6459 4.71984C11.608 4.32124 11.5408 4.13478 11.4653 4.01154C11.3417 3.80994 11.1722 3.64045 10.9706 3.51691C10.8474 3.44139 10.6609 3.37415 10.2623 3.33625Z" fill="white"/>
<path d="M19.9312 6.34642C19.7765 6.56451 19.7765 6.87338 19.7765 7.49114C19.7765 8.10889 19.7765 8.41777 19.9312 8.63586C19.9859 8.71282 20.053 8.78001 20.1299 8.83461C20.3481 8.98935 20.657 8.98935 21.2747 8.98935C21.8925 8.98935 22.2013 8.98935 22.4195 8.83461C22.4964 8.78001 22.5635 8.71282 22.6182 8.63586C22.7729 8.41777 22.7729 8.10889 22.7729 7.49114C22.7729 6.87338 22.7729 6.56451 22.6182 6.34642C22.5635 6.26947 22.4964 6.20227 22.4195 6.14767C22.2013 5.99292 21.8925 5.99292 21.2747 5.99292C20.657 5.99292 20.3481 5.99292 20.1299 6.14767C20.053 6.20227 19.9859 6.26947 19.9312 6.34642Z" fill="white"/>
<path fill-rule="evenodd" clip-rule="evenodd" d="M20.2132 1.49828H20.3011C21.4398 1.49826 22.3581 1.49825 23.0974 1.56855C23.8598 1.64104 24.5241 1.79458 25.1214 2.16061C25.7262 2.53122 26.2347 3.0397 26.6053 3.64448C26.9713 4.24179 27.1248 4.90604 27.1974 5.66844C27.2676 6.40772 27.2676 7.32606 27.2676 8.46479V8.55272C27.2676 9.30099 27.2676 9.92545 27.2194 10.4326C27.169 10.9628 27.0596 11.4569 26.7819 11.9101C26.5101 12.3536 26.1372 12.7265 25.6937 12.9983C25.2406 13.2761 24.7464 13.3854 24.2163 13.4358C23.709 13.484 23.0847 13.484 22.3365 13.484H20.9128C19.8358 13.484 18.9379 13.4841 18.225 13.3882C17.4725 13.2871 16.7931 13.0645 16.2473 12.5186C15.7014 11.9727 15.4788 11.2934 15.3776 10.5409C15.2817 9.828 15.2819 8.93001 15.2819 7.85311V6.42958C15.2819 5.68131 15.2819 5.05685 15.33 4.54966C15.3805 4.01946 15.4898 3.52536 15.7675 3.07216C16.0394 2.62865 16.4122 2.25576 16.8557 1.98399C17.3089 1.70626 17.8031 1.59688 18.3333 1.54647C18.8404 1.49824 19.4649 1.49826 20.2132 1.49828ZM18.5034 3.33625C18.1049 3.37415 17.9184 3.44139 17.7951 3.51691C17.5935 3.64045 17.4241 3.80994 17.3005 4.01154C17.225 4.13478 17.1577 4.32124 17.1199 4.71984C17.0807 5.13181 17.0797 5.67026 17.0797 6.47236V7.79079C17.0797 8.94622 17.0816 9.72237 17.1594 10.3013C17.2339 10.8544 17.3623 11.0911 17.5185 11.2473C17.6747 11.4035 17.9114 11.532 18.4646 11.6064C19.0435 11.6842 19.8197 11.6862 20.9751 11.6862H22.2935C23.0956 11.6862 23.634 11.6852 24.0461 11.646C24.4446 11.6081 24.6311 11.5409 24.7543 11.4654C24.9559 11.3418 25.1254 11.1723 25.249 10.9707C25.3245 10.8475 25.3917 10.661 25.4296 10.2624C25.4688 9.85048 25.4697 9.31203 25.4697 8.50993C25.4697 7.31549 25.4688 6.48278 25.4075 5.83861C25.3476 5.20781 25.2361 4.85121 25.0723 4.58386C24.85 4.22099 24.5449 3.91591 24.182 3.69354C23.9147 3.5297 23.558 3.41831 22.9273 3.35833C22.2831 3.29708 21.4504 3.29614 20.2559 3.29614C19.4539 3.29614 18.9155 3.29708 18.5034 3.33625Z" fill="white"/>
<path d="M5.99292 21.2747C5.99292 20.6569 5.99292 20.3481 6.14767 20.1299C6.20227 20.053 6.26947 19.9859 6.34642 19.9312C6.56451 19.7765 6.87338 19.7765 7.49114 19.7765C8.10889 19.7765 8.41777 19.7765 8.63586 19.9312C8.71282 19.9859 8.78001 20.053 8.83461 20.1299C8.98935 20.3481 8.98935 20.6569 8.98935 21.2747C8.98935 21.8924 8.98935 22.2013 8.83461 22.4194C8.78001 22.4964 8.71282 22.5635 8.63586 22.6182C8.41777 22.7729 8.10889 22.7729 7.49114 22.7729C6.87338 22.7729 6.56451 22.7729 6.34642 22.6182C6.26947 22.5635 6.20227 22.4964 6.14767 22.4194C5.99292 22.2013 5.99292 21.8924 5.99292 21.2747Z" fill="white"/>
<path fill-rule="evenodd" clip-rule="evenodd" d="M10.5408 15.3776C11.2932 15.4788 11.9726 15.7013 12.5185 16.2473C13.0644 16.7931 13.287 17.4725 13.3881 18.2249C13.484 18.9378 13.4839 19.8358 13.4839 20.9127V22.3363C13.4839 23.0844 13.4839 23.709 13.4357 24.2162C13.3853 24.7464 13.276 25.2405 12.9982 25.6937C12.7264 26.1372 12.3535 26.5101 11.91 26.7819C11.4568 27.0596 10.9627 27.1689 10.4325 27.2194C9.92534 27.2676 9.30088 27.2676 8.55261 27.2676H8.46469C7.32596 27.2676 6.40761 27.2676 5.66833 27.1973C4.90593 27.1248 4.24168 26.9713 3.64437 26.6052C3.03959 26.2346 2.53111 25.7262 2.1605 25.1214C1.79447 24.524 1.64093 23.8598 1.56844 23.0974C1.49815 22.3581 1.49816 21.4397 1.49817 20.3011V20.2131C1.49816 19.4649 1.49813 18.8404 1.54636 18.3333C1.59678 17.803 1.70616 17.3089 1.98388 16.8557C2.25566 16.4122 2.62854 16.0393 3.07205 15.7675C3.52526 15.4898 4.01936 15.3805 4.54956 15.33C5.05675 15.2818 5.6812 15.2818 6.42947 15.2818H7.85301C8.9299 15.2818 9.8279 15.2817 10.5408 15.3776ZM10.3012 17.1594C9.72227 17.0816 8.94612 17.0797 7.79068 17.0797H6.47225C5.67015 17.0797 5.1317 17.0806 4.71973 17.1198C4.32113 17.1577 4.13467 17.225 4.01143 17.3005C3.80983 17.424 3.64034 17.5935 3.51681 17.7951C3.44128 17.9183 3.37404 18.1048 3.33615 18.5034C3.29698 18.9154 3.29603 19.4538 3.29603 20.2559C3.29603 21.4504 3.29698 22.2831 3.35822 22.9273C3.4182 23.558 3.5296 23.9147 3.69343 24.182C3.9158 24.5449 4.22088 24.8499 4.58375 25.0723C4.85111 25.2361 5.20771 25.3476 5.8385 25.4075C6.48268 25.4687 7.31539 25.4697 8.50982 25.4697C9.31192 25.4697 9.85037 25.4687 10.2623 25.4296C10.6609 25.3917 10.8474 25.3244 10.9706 25.2489C11.1722 25.1254 11.3417 24.9559 11.4653 24.7543C11.5408 24.6311 11.608 24.4446 11.6459 24.046C11.6851 23.634 11.686 23.0956 11.686 22.2935V20.9751C11.686 19.8196 11.6841 19.0434 11.6063 18.4645C11.5319 17.9114 11.4034 17.6747 11.2472 17.5185C11.091 17.3623 10.8543 17.2338 10.3012 17.1594Z" fill="white"/>
<path d="M20.3299 15.2818H22.7729V17.0797H20.3758C19.5155 17.0797 18.9377 17.0808 18.4974 17.1256C18.0721 17.1689 17.8756 17.2453 17.7455 17.3322C17.582 17.4415 17.4416 17.582 17.3323 17.7455C17.2454 17.8755 17.1689 18.0721 17.1256 18.4974C17.0808 18.9377 17.0797 19.5154 17.0797 20.3758H15.2819V20.3299C15.2819 19.5273 15.2819 18.8575 15.337 18.3154C15.3948 17.7479 15.5203 17.2214 15.8374 16.7467C16.0778 16.3868 16.3868 16.0778 16.7468 15.8374C17.2214 15.5202 17.7479 15.3947 18.3154 15.337C18.8576 15.2818 19.5273 15.2818 20.3299 15.2818Z" fill="white"/>
<path d="M15.2819 26.3686V22.7729H17.0797V26.3686C17.0797 26.865 16.6772 27.2675 16.1808 27.2675C15.6843 27.2675 15.2819 26.865 15.2819 26.3686Z" fill="white"/>
<path d="M27.2676 16.1808C27.2676 15.6843 26.8651 15.2818 26.3687 15.2818C25.8722 15.2818 25.4697 15.6843 25.4697 16.1808V20.3758H27.2676V16.1808Z" fill="white"/>
<path d="M25.4697 22.7729C25.4697 23.3436 25.4692 23.7267 25.4489 24.0233C25.4293 24.3118 25.3939 24.4523 25.3557 24.5448C25.2036 24.9118 24.9119 25.2036 24.5449 25.3557C24.4523 25.3939 24.3118 25.4293 24.0234 25.4489C23.7267 25.4692 23.3436 25.4697 22.7729 25.4697H20.3757V27.2675H22.8032C23.3358 27.2675 23.7806 27.2675 24.1457 27.2426C24.5258 27.2167 24.8848 27.1609 25.2328 27.0167C26.0404 26.6821 26.6821 26.0404 27.0167 25.2328C27.1609 24.8848 27.2167 24.5258 27.2426 24.1457C27.2675 23.7806 27.2675 23.336 27.2675 22.8032V22.7729H25.4697Z" fill="white"/>
<path d="M19.3791 19.7098C19.1771 20.0122 19.1771 20.433 19.1771 21.2747C19.1771 22.1163 19.1771 22.5371 19.3791 22.8395C19.4666 22.9704 19.5789 23.0827 19.7098 23.1702C20.0122 23.3722 20.433 23.3722 21.2746 23.3722C22.1163 23.3722 22.5371 23.3722 22.8395 23.1702C22.9704 23.0827 23.0827 22.9704 23.1702 22.8395C23.3721 22.5371 23.3721 22.1163 23.3721 21.2747C23.3721 20.433 23.3721 20.0122 23.1702 19.7098C23.0827 19.5789 22.9704 19.4666 22.8395 19.3791C22.5371 19.1772 22.1163 19.1772 21.2746 19.1772C20.433 19.1772 20.0122 19.1772 19.7098 19.3791C19.5789 19.4666 19.4666 19.5789 19.3791 19.7098Z" fill="white"/>
</svg>
