<svg width="26" height="26" viewBox="0 0 26 26" fill="none" xmlns="http://www.w3.org/2000/svg">
<path d="M23.8168 12.991C23.8168 18.0943 23.8168 20.646 22.2314 22.2314C20.646 23.8168 18.0943 23.8168 12.991 23.8168C7.88764 23.8168 5.33597 23.8168 3.75057 22.2314C2.16516 20.646 2.16516 18.0943 2.16516 12.991C2.16516 7.88764 2.16516 5.33597 3.75057 3.75057C5.33597 2.16516 7.88764 2.16516 12.991 2.16516" stroke="white" stroke-width="1.62387" stroke-linecap="round"/>
<path d="M2.16516 13.5324L4.0614 11.8732C5.04793 11.0101 6.53477 11.0596 7.46169 11.9865L12.1057 16.6304C12.8496 17.3745 14.0207 17.4759 14.8816 16.8709L15.2044 16.6441C16.4431 15.7735 18.1191 15.8744 19.2445 16.8872L22.7342 20.0279" stroke="white" stroke-width="1.62387" stroke-linecap="round"/>
<path d="M23.8168 2.16518L17.3213 8.66066M17.3213 2.16516L23.8167 8.66064" stroke="white" stroke-width="1.62387" stroke-linecap="round"/>
</svg>
