<svg width="27" height="27" viewBox="0 0 27 27" fill="none" xmlns="http://www.w3.org/2000/svg">
<path d="M10.2973 6.08443C11.7223 3.52815 12.4347 2.25 13.5 2.25C14.5653 2.25 15.2777 3.52814 16.7027 6.08442L17.0713 6.74576C17.4763 7.47217 17.6787 7.83539 17.9945 8.07504C18.3102 8.31468 18.7032 8.40364 19.4896 8.58156L20.2056 8.74353C22.9726 9.36963 24.3563 9.68267 24.6854 10.7412C25.0146 11.7997 24.0714 12.9027 22.1849 15.1086L21.6969 15.6793C21.1608 16.3062 20.8927 16.6196 20.7721 17.0074C20.6516 17.3952 20.6921 17.8134 20.7731 18.6498L20.8469 19.4112C21.1321 22.3544 21.2748 23.826 20.413 24.4802C19.5512 25.1344 18.2557 24.5379 15.6648 23.3451L14.9946 23.0364C14.2584 22.6974 13.8903 22.5279 13.5 22.5279C13.1097 22.5279 12.7416 22.6974 12.0054 23.0364L11.3352 23.3451C8.74427 24.5379 7.44883 25.1344 6.58705 24.4802C5.72526 23.826 5.86787 22.3544 6.15308 19.4112L6.22685 18.6498C6.30791 17.8134 6.34843 17.3952 6.22784 17.0074C6.10727 16.6196 5.83924 16.3062 5.30316 15.6793L4.81511 15.1086C2.92866 12.9027 1.98542 11.7997 2.3146 10.7412C2.64377 9.68267 4.02734 9.36963 6.79448 8.74353L7.51038 8.58156C8.29671 8.40364 8.68987 8.31468 9.00556 8.07504C9.32125 7.83539 9.52372 7.47218 9.92866 6.74576L10.2973 6.08443Z" stroke="white" stroke-width="1.6875"/>
</svg>
